<?xml version="1.0" encoding="UTF-8"?>
<svg version="1.1" xmlns="http://www.w3.org/2000/svg" width="32" height="32">
<path d="M0 0 C10.56 0 21.12 0 32 0 C32 10.56 32 21.12 32 32 C21.44 32 10.88 32 0 32 C0 21.44 0 10.88 0 0 Z " fill="#1D1C46" transform="translate(0,0)"/>
<path d="M0 0 C3 0 3 0 5.6875 2.5 C6.450625 3.325 7.21375 4.15 8 5 C7.25 6.9375 7.25 6.9375 6 9 C3.9375 9.8125 3.9375 9.8125 2 10 C1.67 9.67 1.34 9.34 1 9 C0.67 9.99 0.34 10.98 0 12 C-0.66 12 -1.32 12 -2 12 C-1.44687265 7.97007218 -0.8441938 3.97977076 0 0 Z " fill="#31769F" transform="translate(16,8)"/>
<path d="M0 0 C3.3 0 6.6 0 10 0 C9.67 0.99 9.34 1.98 9 3 C6.03 3 3.06 3 0 3 C0 2.01 0 1.02 0 0 Z " fill="#6C8498" transform="translate(11,22)"/>
<path d="M0 0 C0.99 0 1.98 0 3 0 C3 0.66 3 1.32 3 2 C2.34 2.66 1.68 3.32 1 4 C1.66 4.33 2.32 4.66 3 5 C3 5.66 3 6.32 3 7 C0.525 6.01 0.525 6.01 -2 5 C-2 2 -2 2 0 0 Z " fill="#2A5C5B" transform="translate(10,11)"/>
</svg>
